<svg width="15" height="15" viewBox="0 0 15 15" fill="none" xmlns="http://www.w3.org/2000/svg">
<path d="M3.63022 7.74162C1.62772 7.74162 0.00435683 9.36647 0.00435683 11.3708C0.00435683 13.3752 1.62787 15 3.63037 15C5.63288 15 7.25639 13.3752 7.25639 11.3708C7.25639 9.36647 5.63288 7.74162 3.63022 7.74162ZM3.63022 13.9022C2.23469 13.9022 1.10243 12.7695 1.10243 11.3721C1.10243 9.9746 2.23422 8.84191 3.63022 8.84191C5.02622 8.84191 6.15816 9.9746 6.15816 11.3721C6.15581 12.7683 5.02543 13.9005 3.63022 13.9022ZM11.374 0.000157383C9.37148 0.000157383 7.74796 1.62501 7.74796 3.62935C7.74796 5.63369 9.37148 7.25853 11.374 7.25853C13.3765 7.25853 15 5.63369 15 3.62935C15 1.62501 13.3766 0.000157383 11.374 0.000157383ZM11.374 6.16075C9.97845 6.16075 8.8462 5.02806 8.8462 3.6306C8.8462 2.23313 9.97751 1.10045 11.3741 1.10045C12.7708 1.10045 13.9021 2.23313 13.9021 3.6306C13.8997 5.02744 12.7684 6.1584 11.374 6.16075ZM3.63022 7.38992e-07C1.904 -0.0010947 0.415802 1.21578 0.0727217 2.90917C-0.270358 4.60256 0.626385 6.30331 2.21587 6.97575C2.9891 7.29989 3.85084 7.34725 4.65506 7.10982C5.45928 6.87239 6.15651 6.36476 6.62862 5.67296C7.10072 4.98116 7.31865 4.14774 7.24549 3.31391C7.17232 2.48009 6.81255 1.69716 6.22715 1.09779H7.2553V7.38992e-07H3.63022ZM6.15832 3.62919C6.15832 5.0265 5.02653 6.15934 3.63037 6.15934C2.23422 6.15934 1.10259 5.0265 1.10259 3.62919C1.10259 2.23188 2.23422 1.09951 3.63022 1.09951C5.02622 1.09951 6.15581 2.23219 6.15832 3.62919Z" fill="white"/>
</svg>
